<?xml version="1.0" encoding="UTF-8"?>
<svg version="1.1" viewBox="0 0 1600 1056" width="1280" height="1280" xmlns="http://www.w3.org/2000/svg">
<path transform="translate(716 247)" d="m0 0c0.92-0 1.84-0.01 2.79-0.01 3.09-0.01 6.18-0.01 9.26-0.01 2.22-0.01 4.43-0.01 6.65-0.02 6.01-0.01 12-0.02 18-0.02 3.76 0 7.52-0.01 11.3-0.01l31.3-0.03h2.02 2.03 4.06 2.04c10.9 0 21.7-0.02 32.6-0.05 11.2-0.02 22.4-0.03 33.5-0.03 6.27 0 12.5-0.01 18.8-0.03 5.9-0.01 11.8-0.02 17.7-0.01 2.16 0 4.31 0 6.47-0.01 20.2-0.09 37.8 1.61 53.1 16.2 7.52 7.46 11.4 15.8 15.6 25.4 2.84 6.58 5.82 13.1 8.79 19.6 0.98 2.14 1.95 4.28 2.92 6.43 3.11 6.84 6.24 13.7 9.41 20.5 0.55 1.19 1.1 2.39 1.68 3.62 1.03 2.23 2.08 4.46 3.12 6.69 0.69 1.49 0.69 1.49 1.4 3 0.4 0.86 0.8 1.72 1.22 2.6 0.88 2.11 1.5 4.09 1.97 6.32 0.98 0.07 1.96 0.13 2.97 0.2 23.7 1.57 47.4 3.35 71.1 5.26 2.08 0.17 4.16 0.33 6.24 0.5 3.94 0.31 7.88 0.63 11.8 0.95 1.18 0.1 2.36 0.19 3.57 0.29 5.78 0.47 11.5 1.02 17.3 1.8l1 3h-139c-9.2-18.4-9.2-18.4-11.8-24.3-0.47-1.02-0.47-1.02-0.95-2.06-0.65-1.43-1.3-2.86-1.95-4.3-1.03-2.25-2.05-4.5-3.08-6.75-3.28-7.18-6.51-14.4-9.66-21.6-0.4-0.93-0.4-0.93-0.82-1.88-1.24-2.86-2.48-5.73-3.7-8.6-3.23-7.43-6.79-15.6-14.4-19.4-0.69-0.37-1.38-0.74-2.09-1.12-6.61-2.63-12.7-3.3-19.7-3.26-0.89-0.01-1.78-0.01-2.7-0.01-2.97-0.01-5.94 0-8.91 0-2.13 0-4.27 0-6.41-0.01-5.79-0.01-11.6 0-17.4 0-6.07 0.01-12.1 0-18.2 0-10.2 0-20.4 0-30.6 0.01-11.8 0.01-23.5 0.01-35.3 0-10.1-0.01-20.2-0.01-30.3-0.01h-18.1c-5.67-0.01-11.4 0-17 0.01h-6.24c-2.84-0.01-5.69 0-8.53 0.01-0.82-0.01-1.64-0.01-2.48-0.02-8.49 0.06-17.9 1.68-24.3 7.74-3.67 4.25-6.18 8.46-8.44 13.6-0.35 0.76-0.7 1.53-1.06 2.32-1.14 2.49-2.26 4.99-3.38 7.5-0.79 1.73-1.58 3.47-2.37 5.21-2.02 4.43-4.02 8.87-6.03 13.3-2.18 4.84-4.38 9.67-6.57 14.5-1.61 3.54-3.22 7.08-4.82 10.6-0.3 0.65-0.59 1.3-0.89 1.97-0.78 1.72-1.56 3.45-2.34 5.17-1.18 2.53-2.39 5.03-3.64 7.53-0.36 0.71-0.72 1.42-1.08 2.16-0.28 0.54-0.55 1.08-0.83 1.63-0.69 0-1.38 0.01-2.1 0.01-16.9 0.06-33.8 0.13-50.8 0.23-8.18 0.04-16.4 0.08-24.6 0.11-7.13 0.02-14.3 0.05-21.4 0.1-3.77 0.02-7.55 0.04-11.3 0.05-3.57 0-7.13 0.02-10.7 0.05-1.91 0.02-3.82 0.02-5.73 0.01-16 0.17-31.5 3.66-43.3 15-11.6 13.5-15.2 30.4-15.2 47.8v3.49c-0.01 3.19-0.01 6.37-0.02 9.56 0 3.44 0 6.88-0.01 10.3-0.01 7.52-0.02 15-0.03 22.6 0 4.7 0 9.4-0.01 14.1-0.01 13-0.02 26-0.02 39.1v2.53 2.53c0 1.69 0 3.38-0.01 5.07v2.55c0 13.6-0.02 27.2-0.04 40.8-0.02 14-0.04 27.9-0.04 41.9 0 7.84 0 15.7-0.02 23.5-0.02 6.68-0.02 13.4-0.02 20 0.01 3.4 0.01 6.8-0.01 10.2-0.08 23.1 1.48 41.8 16.4 60.5 0.75 1.03 0.75 1.03 1.51 2.08 14.7 19 41.4 27.3 64.2 30.6 8.94 1.1 17.9 1.5 26.9 1.81 1.17 0.04 2.34 0.08 3.55 0.13 12.1 0.41 24.2 0.65 36.4 0.84 2.42 0.04 4.85 0.08 7.27 0.12 14.6 0.25 29.3 0.44 44 0.6 2.79 0.03 5.59 0.06 8.39 0.09 8.29 0.1 16.6 0.19 24.9 0.27 3.46 0.04 6.93 0.07 10.4 0.11 1.62 0.02 3.23 0.04 4.85 0.05 8.93 0.08 17.8 0.34 26.7 1.26v5c-25.4 0.07-50.8 0.12-76.2 0.16-11.8 0.01-23.6 0.03-35.4 0.07-10.3 0.03-20.6 0.05-30.9 0.05-5.44 0.01-10.9 0.02-16.3 0.04-91.2 0.35-91.2 0.35-123-29.3-16.4-17.2-23.4-39.4-23.2-62.8 0-1.13-0.01-2.26-0.01-3.43-0.01-3.75 0-7.5 0.01-11.2-0.01-2.7-0.01-5.41-0.01-8.11-0.01-6.56-0.01-13.1-0.01-19.7 0.01-5.34 0.01-10.7 0.01-16v-2.31c0-1.55 0-3.1-0.01-4.65 0-14.5 0.01-29 0.02-43.5 0-12.4 0-24.8-0.01-37.2-0.01-14.4-0.01-28.9 0-43.3v-4.63-2.3c0-5.32 0-10.6-0.01-16 0-6.5 0-13 0.01-19.5 0-3.31 0.01-6.62 0-9.93-0.05-32.4 2.63-62.6 25.8-87.4 16.4-15.7 36.7-22.2 59.1-22.3 1.21-0.01 2.42-0.02 3.67-0.03 3.28-0.02 6.56-0.04 9.85-0.05 3.45-0.02 6.89-0.05 10.3-0.07 6.51-0.05 13-0.09 19.5-0.12 7.42-0.04 14.8-0.09 22.3-0.14 15.2-0.1 30.5-0.19 45.7-0.27 6.41-11.8 6.41-11.8 12.1-24 0.33-0.75 0.66-1.51 1.01-2.28 1.03-2.34 2.05-4.68 3.07-7.02 0.69-1.57 1.39-3.15 2.08-4.72 1-2.28 2.01-4.56 3.01-6.84 8.3-18.9 16.3-36.3 36.8-44.4 8.17-2.84 15.6-3.94 24.2-3.93z" fill="#000100"/>
<path transform="translate(847,447)" d="m0 0c1.05 0.24 2.1 0.49 3.18 0.74 25 6.57 49.5 25.2 62.8 47.3 0.64 1.01 1.28 2.02 1.95 3.06 15.2 25 20.5 55.2 14.2 83.9-2.24 8.5-5.19 16.8-8.13 25.1-1.11-0.93-2.22-1.86-3.32-2.79-0.62-0.52-1.24-1.04-1.87-1.57-1.72-1.56-3.17-3.15-4.62-4.95-1.91-2.72-1.91-2.72-4.19-3.69v-2c-0.58-0.26-1.16-0.52-1.76-0.78-2.42-1.32-4.09-2.78-6.06-4.7-0.7-0.67-1.4-1.34-2.12-2.03-1.47-1.42-2.93-2.84-4.39-4.26-0.7-0.66-1.4-1.33-2.12-2.02-0.63-0.61-1.26-1.23-1.92-1.86-1.53-1.56-1.53-1.56-3.63-1.35-1.13 1.62-2.18 3.3-3.19 5-9.79 15.7-24 25.9-41.9 30.9-20.1 4.09-37.4-0.02-54.9-9.88l-2-2c0.79-0.23 1.57-0.46 2.38-0.7 9.31-2.89 15.7-5.6 20.6-14.3 4.14-8.44 3.72-16.1 0.93-24.8-1.18-2.87-2.86-4.98-4.93-7.27v-2c-2.81-1.42-5.63-2.77-8.5-4.06-1.13-0.51-1.13-0.51-2.28-1.04-7.59-3.09-14.1-2.08-21.6 0.83-5.83 2.79-9.85 7.1-13.6 12.3-4.06-12.2-1.76-30 3.1-41.6 1.08-2.4 1.08-2.4 0.9-5.35-14.3-2.93-28.6-5.74-43-8 1.46-4.32 3.77-7.64 6.56-11.2 0.45-0.57 0.89-1.14 1.35-1.72 19.7-24.9 43.3-39.8 74.3-45.7 15.8-1.6 32.4-1.47 47.8 2.62z" fill="#000100"/>
<path transform="translate(806 374)" d="m0 0c0.83-0.01 1.67-0.01 2.52-0.02 1.77-0.01 3.53-0.01 5.29-0.02 2.63-0.01 5.25-0.04 7.88-0.07 15.4-0.1 30.5 1.63 45.3 6.13 0.88 0.25 1.75 0.51 2.65 0.78 23.9 7.23 46.8 18.9 65.6 35.4 0.81 0.7 1.61 1.39 2.44 2.11 34.6 30.4 55.6 69.3 62.6 115 0.26 1.62 0.26 1.62 0.53 3.26 0.86 6.78 0.72 13.6 0.72 20.4 0.01 0.79 0.01 1.57 0.01 2.38-0.02 12.2-0.55 24-3.26 35.9-0.16 0.75-0.33 1.5-0.5 2.27-1.29 5.65-2.83 11.2-4.5 16.7-0.27 0.93-0.54 1.85-0.83 2.8-5.82 19.3-13.3 38.8-25.2 55.2-0.69 0.97-1.39 1.93-2.11 2.93-2.25 3.06-4.55 6.07-6.89 9.07-0.71 0.92-1.42 1.84-2.15 2.78-4.16 5.25-8.58 10.2-13.3 14.9-0.52 0.53-1.04 1.06-1.58 1.61-3.74 3.7-3.74 3.7-5.99 3.7v2c-1.81 1.6-3.63 3.06-5.56 4.5-0.58 0.44-1.16 0.88-1.76 1.34-41 30.6-90.8 45.2-142 38-40.1-6.39-74.5-25-104-52.8-0.63-0.58-1.26-1.15-1.91-1.75-30.5-28.8-50-74.8-51.4-116-0.07-3.71-0.09-7.43-0.08-11.1v-2.39c0.23-55.1 23.8-107 62.5-146 9.05-8.88 19.2-15.9 29.9-22.7 0.96-0.62 1.91-1.23 2.89-1.87 20-12.3 43.1-19.5 66.1-23.1 1.05-0.17 2.1-0.34 3.17-0.52 4.23-0.53 8.35-0.66 12.6-0.68zm-107 57.8c-1.41 1.44-1.41 1.44-3.91 3.38-12.8 10.5-22.9 26.6-30.5 41.1l-2.01 3.69c-8.94 16.7-14 34.7-17 53.3-0.19 1.19-0.38 2.37-0.58 3.59-0.79 6.7-0.66 13.5-0.67 20.2v2.23c0.02 11.6 0.64 22.7 3.25 34 0.17 0.76 0.34 1.52 0.51 2.3 10.4 46.8 39.7 85.5 79.8 111 39 24.1 86.8 30 131 19.9 23.7-5.82 45.2-16.7 64.6-31.4 0.92-0.69 1.85-1.39 2.79-2.1 12.6-9.94 24.1-21.6 33.2-34.9 0.41-0.58 0.81-1.17 1.23-1.78 15.4-22.7 24.1-47.3 28.8-74.2 0.27-1.38 0.27-1.38 0.54-2.79 0.53-3.63 0.66-7.2 0.7-10.9 0.01-0.73 0.02-1.46 0.03-2.21 0.18-16.7-0.15-32.8-4.27-49.1-0.21-0.86-0.42-1.72-0.65-2.6-7.63-29.6-23-54.8-43.4-77.4-1.01-1.12-1.01-1.12-2.04-2.27-31.2-32.7-76.8-49.5-121-50.8-43.1-0.45-90.2 15.8-120 47.6z" fill="#000100"/>
<path transform="translate(532 394)" d="m0 0c1.69-0.01 1.69-0.01 3.41-0.03 1.21 0 2.43-0.01 3.68-0.01 1.88-0.01 1.88-0.01 3.79-0.02 2.64-0.01 5.29-0.02 7.93-0.02 3.38 0 6.76-0.03 10.2-0.06 3.23-0.02 6.46-0.02 9.69-0.03 1.22-0.01 2.43-0.02 3.68-0.03h3.42c1 0 1.99 0 3.01-0.01 4.3 0.58 6.91 2.54 9.93 5.56 4.57 7.08 5 16.2 3.28 24.3-1.38 4.52-3.07 8.08-6.46 11.5-3.14 1.05-5.38 1.15-8.67 1.18-1.16 0.01-2.32 0.02-3.52 0.04-1.25 0-2.51 0.01-3.8 0.02s-2.58 0.02-3.91 0.02c-2.74 0.02-5.47 0.03-8.21 0.04-3.49 0.01-6.98 0.04-10.5 0.08-3.34 0.03-6.68 0.04-10 0.05-1.25 0.01-2.5 0.03-3.79 0.05-10.8-0.03-10.8-0.03-15.6-4.48-5.46-6.95-5.7-14.5-5-23 1.24-5.07 2.85-8.85 6.56-12.6 3.77-2.23 6.63-2.57 10.9-2.6z" fill="#000100"/>
<path transform="translate(705,532)" d="m0 0h1c0.01 0.68 0.02 1.37 0.03 2.07 0.39 22.9 3.01 42.2 13 62.9 0.51 1.06 1.01 2.12 1.54 3.21 9.16 17.8 23 31.8 39.5 42.8 0.99 0.66 1.97 1.32 2.99 2 25.2 15.6 57.5 20.6 86.3 14 22.7-6.38 42.4-16.6 58.7-34 0 4.12-2.18 5.79-4.88 8.62-0.5 0.54-1 1.07-1.51 1.62-21.7 22.9-50.9 36.1-82.4 37-28.7 0.41-54.2-9.07-76.2-27.2-0.56-0.44-1.12-0.89-1.7-1.34-1.47-1.18-2.89-2.41-4.3-3.66v-2c-0.99-0.33-1.98-0.66-3-1-9.8-10.1-17.8-22.9-23-36-0.43-1.07-0.86-2.13-1.3-3.23-5.2-13.6-6.95-26.1-7.01-40.5-0.01-1.12-0.01-2.25-0.02-3.41 0.06-7.45 0.89-14.5 2.33-21.8z" fill="#000100"/>
</svg>
